<svg width="40" height="40" viewBox="0 0 40 40" fill="none" xmlns="http://www.w3.org/2000/svg">
<path d="M20 40C31.0457 40 40 31.0457 40 20C40 8.95431 31.0457 0 20 0C8.95431 0 0 8.95431 0 20C0 31.0457 8.95431 40 20 40Z" fill="#FF7058"/>
<path d="M15.4332 27.3072H24.567C24.8505 24.1261 25.9843 21.1025 27.8426 18.4883C28.9765 16.9135 29.6379 14.9922 29.6379 12.882C29.6379 7.49616 25.2599 3.1497 19.8426 3.24419C14.6143 3.30718 10.3938 7.59064 10.3308 12.819C10.3308 14.9607 10.9922 16.9765 12.1891 18.5828C14.0788 21.1339 15.1812 24.1576 15.4332 27.3072Z" fill="white"/>
<path d="M24.4724 27.3071H15.5276C14.7402 27.3071 14.1102 27.937 14.1102 28.7245C14.1102 29.5119 14.7402 30.1418 15.5276 30.1418H24.4724C25.2598 30.1418 25.8898 29.5119 25.8898 28.7245C25.8898 27.937 25.2598 27.3071 24.4724 27.3071Z" fill="#324A5E"/>
<path d="M24.4724 31.0864H15.5276C14.7402 31.0864 14.1102 31.7163 14.1102 32.5037C14.1102 33.2912 14.7402 33.9211 15.5276 33.9211H24.4724C25.2598 33.9211 25.8898 33.2912 25.8898 32.5037C25.8898 31.7163 25.2598 31.0864 24.4724 31.0864Z" fill="#324A5E"/>
<path d="M15.811 35.0234C15.811 35.9683 16.5669 36.7557 17.5433 36.7557H22.4567C23.4016 36.7557 24.189 35.9998 24.189 35.0234H15.811Z" fill="#324A5E"/>
<path d="M12.9449 11.6219C12.7244 11.4015 12.5669 11.0865 12.5669 10.7401C12.5669 10.2361 12.8819 9.79517 13.3228 9.6062C13.1969 9.41722 13.1024 9.16525 13.1339 8.88179C13.1654 8.28336 13.6063 7.77942 14.1732 7.71643C14.3937 7.68494 14.5827 7.71643 14.7717 7.77942C14.7402 7.68494 14.7402 7.59045 14.7402 7.49596C14.7402 6.86604 15.2441 6.3621 15.874 6.29911C16.2835 6.26761 16.6299 6.42509 16.8819 6.70856C16.9764 6.14163 17.4803 5.70068 18.0787 5.70068C18.7402 5.70068 19.3071 6.23612 19.3071 6.92903C19.3071 7.11801 19.2756 7.30698 19.1811 7.46446C19.0551 7.74793 19.0866 8.06289 19.2441 8.31486C19.4331 8.59832 19.5276 8.94478 19.5276 9.29123C19.5276 9.66919 19.4016 10.0156 19.2126 10.2991C18.9921 10.6141 18.9921 10.992 19.2126 11.307C19.4016 11.5904 19.5276 11.9369 19.5276 12.3149C19.5276 12.6928 19.4016 13.0393 19.2126 13.3227C18.9921 13.6377 18.9921 14.0156 19.2126 14.3306C19.4016 14.6141 19.5276 14.9605 19.5276 15.3385C19.5276 15.7479 19.3701 16.1259 19.1496 16.4408C18.9291 16.7243 18.8976 17.1023 19.0866 17.4172C19.2126 17.6377 19.2756 17.8897 19.2756 18.1731C19.2756 19.0235 18.5827 19.6849 17.7638 19.6849C17.0709 19.6849 16.4724 19.2125 16.2835 18.5826C16.189 18.6141 16.063 18.6141 15.9685 18.6141C15.2126 18.6456 14.5512 18.1101 14.4252 17.3542C14.3937 17.1338 14.3937 16.9133 14.4567 16.7243H14.4252C13.7008 16.7243 13.1024 16.1259 13.1024 15.4015C13.1024 15.37 13.1024 15.3385 13.1024 15.307C12.4409 14.929 12 14.2361 12 13.4172C12 12.6613 12.378 12.0314 12.9449 11.6219Z" fill="#84DBFF"/>
<path d="M27.0551 11.6219C27.2756 11.4015 27.433 11.0865 27.433 10.7401C27.433 10.2361 27.1181 9.79517 26.6771 9.6062C26.8031 9.41722 26.8976 9.16525 26.8661 8.88179C26.8346 8.28336 26.3937 7.77942 25.8267 7.71643C25.6063 7.68494 25.4173 7.71643 25.2283 7.77942C25.2598 7.68494 25.2598 7.59045 25.2598 7.49596C25.2598 6.86604 24.7559 6.3621 24.126 6.29911C23.7165 6.26761 23.3701 6.42509 23.1181 6.70856C23.0236 6.14163 22.5197 5.70068 21.9212 5.70068C21.2598 5.70068 20.6929 6.23612 20.6929 6.92903C20.6929 7.11801 20.7244 7.30698 20.8189 7.46446C20.9449 7.74793 20.9134 8.06289 20.7559 8.31486C20.5669 8.59832 20.4724 8.94478 20.4724 9.29123C20.4724 9.66919 20.5984 10.0156 20.7874 10.2991C21.0078 10.6141 21.0078 10.992 20.7874 11.307C20.5984 11.5904 20.4724 11.9369 20.4724 12.3149C20.4724 12.6928 20.5984 13.0393 20.7874 13.3227C21.0078 13.6377 21.0078 14.0156 20.7874 14.3306C20.5984 14.6141 20.4724 14.9605 20.4724 15.3385C20.4724 15.7479 20.6299 16.1259 20.8504 16.4408C21.0708 16.7243 21.1023 17.1023 20.9134 17.4172C20.7874 17.6377 20.7244 17.8897 20.7244 18.1731C20.7244 19.0235 21.4173 19.6849 22.2362 19.6849C22.9291 19.6849 23.5275 19.2125 23.7165 18.5826C23.811 18.6141 23.937 18.6141 24.0315 18.6141C24.7874 18.6456 25.4488 18.1101 25.5748 17.3542C25.6063 17.1338 25.6063 16.9133 25.5433 16.7243H25.5748C26.2992 16.7243 26.8976 16.1259 26.8976 15.4015C26.8976 15.37 26.8976 15.3385 26.8976 15.307C27.559 14.929 28 14.2361 28 13.4172C28 12.6613 27.622 12.0314 27.0551 11.6219Z" fill="#84DBFF"/>
<path d="M14.0472 10.1102C14.1732 10.5512 14.5826 10.8661 15.055 10.8661C15.4015 10.9606 15.622 11.2756 15.622 11.622C15.622 11.9685 15.37 12.2834 15.055 12.3779C15.055 12.3779 15.0551 12.3779 15.0236 12.3779C15.0236 12.3779 15.0236 12.3779 14.9921 12.3779C15.3385 12.4724 15.559 12.7874 15.559 13.1338C15.559 13.4803 15.3385 13.7953 14.9921 13.8897C14.5511 13.9212 14.1732 14.2047 14.0472 14.6456C14.0157 14.7086 14.0787 14.7716 14.1417 14.8031C14.2047 14.8346 14.2677 14.7716 14.2991 14.7086C14.3936 14.3622 14.7086 14.1417 15.055 14.1417C15.37 14.1417 15.622 14.2992 15.7795 14.5827C15.2125 14.6456 14.7086 15.0551 14.5511 15.622C14.5196 15.685 14.5826 15.748 14.6456 15.7795C14.7086 15.811 14.7716 15.748 14.8031 15.685C14.9606 15.1811 15.433 14.8031 15.9684 14.8031C16.5039 14.8031 16.9763 15.1496 17.1338 15.685C17.1653 15.748 17.2283 15.7795 17.2913 15.7795C17.3543 15.748 17.3858 15.685 17.3858 15.622C17.2283 15.0236 16.6928 14.6142 16.0629 14.5827C15.9369 14.2992 15.7165 14.0787 15.433 13.9842C15.685 13.7953 15.8424 13.4803 15.8424 13.1653C15.8424 12.7874 15.6535 12.4724 15.3385 12.2834C15.6535 12.0945 15.8424 11.748 15.8424 11.4016C15.8424 11.3701 15.8424 11.3386 15.8424 11.3386C15.9369 10.9921 16.2519 10.7716 16.5984 10.7716C16.9448 10.7716 17.2598 10.9921 17.3543 11.3386V11.3701C17.3543 11.685 17.5747 12 17.8897 12.0945C17.9527 12.126 18.0157 12.063 18.0472 12C18.0787 11.937 18.0157 11.874 17.9527 11.8425C17.7322 11.7795 17.6062 11.5905 17.6062 11.3701C17.6062 11.1496 17.7637 10.9606 17.9527 10.8976C18.0157 10.8661 18.0472 10.8031 18.0472 10.7401C18.0472 10.6771 17.9842 10.6456 17.9212 10.6456H17.8897C17.7007 10.7086 17.5747 10.8031 17.4802 10.9606C17.2913 10.6771 16.9763 10.4882 16.5984 10.4882C16.2519 10.4882 15.9369 10.6771 15.748 10.9291C15.685 10.7716 15.559 10.6141 15.4015 10.5197C15.622 10.4252 15.811 10.2677 15.9369 10.0472C16.0629 10.2047 16.2519 10.3307 16.4724 10.3307C16.7558 10.3307 17.0393 10.1417 17.1023 9.85824C17.1338 9.79525 17.0708 9.73226 17.0078 9.70076C16.9448 9.66926 16.8818 9.73226 16.8503 9.79525C16.7873 9.98423 16.6298 10.1102 16.4409 10.1102C16.2519 10.1102 16.0944 9.98423 16.0314 9.79525C16.0314 9.73226 15.9684 9.70076 15.9054 9.70076H15.8739H15.8424C15.7795 9.70076 15.748 9.73226 15.7165 9.79525C15.622 10.1417 15.307 10.3622 14.9606 10.3622C14.6141 10.3622 14.2991 10.1102 14.2047 9.79525C14.1732 9.73226 14.1102 9.70076 14.0472 9.70076C14.0787 9.95273 14.0157 10.0157 14.0472 10.1102Z" fill="white"/>
<path d="M15.4015 9.19659C15.4645 9.22809 15.5275 9.16509 15.559 9.1021C15.6535 8.75564 15.9684 8.53517 16.3149 8.53517C16.6298 8.53517 16.9133 8.72415 17.0393 9.00761C16.7243 9.1336 16.4724 9.38557 16.3779 9.70053C16.3464 9.76352 16.4094 9.82651 16.4724 9.85801C16.5354 9.8895 16.5983 9.82651 16.6298 9.76352C16.7243 9.41706 17.0393 9.19659 17.3857 9.19659C17.7322 9.19659 18.0472 9.44856 18.1417 9.76352C18.1732 9.82651 18.2361 9.85801 18.2991 9.85801C18.3621 9.82651 18.3936 9.76352 18.3936 9.70053C18.2676 9.25958 17.8582 8.94462 17.3857 8.94462C17.3543 8.94462 17.3228 8.94462 17.2598 8.94462C17.1023 8.53517 16.7243 8.2832 16.2834 8.2832C15.8109 8.2832 15.4015 8.59816 15.2755 9.03911C15.2755 9.1336 15.3385 9.19659 15.4015 9.19659Z" fill="white"/>
<path d="M25.9527 10.1102C25.8267 10.5512 25.4173 10.8661 24.9448 10.8661C24.5984 10.9606 24.3779 11.2756 24.3779 11.622C24.3779 11.9685 24.6299 12.2834 24.9448 12.3779C24.9448 12.3779 24.9448 12.3779 24.9763 12.3779C24.9763 12.3779 24.9763 12.3779 25.0078 12.3779C24.6614 12.4724 24.4409 12.7874 24.4409 13.1338C24.4409 13.4803 24.6614 13.7953 25.0078 13.8897C25.4488 13.9212 25.8267 14.2047 25.9527 14.6456C25.9842 14.7086 25.9212 14.7716 25.8582 14.8031C25.7952 14.8346 25.7322 14.7716 25.7007 14.7086C25.6063 14.3622 25.2913 14.1417 24.9448 14.1417C24.6299 14.1417 24.3779 14.2992 24.2204 14.5827C24.7874 14.6456 25.2913 15.0551 25.4488 15.622C25.4803 15.685 25.4173 15.748 25.3543 15.7795C25.2913 15.811 25.2283 15.748 25.1968 15.685C25.0393 15.1811 24.5669 14.8031 24.0315 14.8031C23.496 14.8031 23.0236 15.1496 22.8661 15.685C22.8346 15.748 22.7716 15.7795 22.7086 15.7795C22.6456 15.748 22.6141 15.685 22.6141 15.622C22.7716 15.0236 23.307 14.6142 23.937 14.5827C24.063 14.2992 24.2834 14.0787 24.5669 13.9842C24.3149 13.7953 24.1574 13.4803 24.1574 13.1653C24.1574 12.7874 24.3464 12.4724 24.6614 12.2834C24.3464 12.0945 24.1574 11.748 24.1574 11.4016C24.1574 11.3701 24.1574 11.3386 24.1574 11.3386C24.0629 10.9921 23.748 10.7716 23.4015 10.7716C23.0551 10.7716 22.7401 10.9921 22.6456 11.3386V11.3701C22.6456 11.685 22.4252 12 22.1102 12.0945C22.0472 12.126 21.9842 12.063 21.9527 12C21.9212 11.937 21.9842 11.874 22.0472 11.8425C22.2677 11.7795 22.3937 11.5905 22.3937 11.3701C22.3937 11.1496 22.2362 10.9606 22.0472 10.8976C21.9842 10.8661 21.9527 10.8031 21.9527 10.7401C21.9527 10.6771 22.0157 10.6456 22.0787 10.6456H22.1102C22.2992 10.7086 22.4252 10.8031 22.5196 10.9606C22.7086 10.6771 23.0236 10.4882 23.4015 10.4882C23.748 10.4882 24.063 10.6771 24.2519 10.9291C24.3149 10.7716 24.4409 10.6141 24.5984 10.5197C24.3779 10.4252 24.1889 10.2677 24.063 10.0472C23.937 10.2047 23.748 10.3307 23.5275 10.3307C23.2441 10.3307 22.9606 10.1417 22.8976 9.85824C22.8661 9.79525 22.9291 9.73226 22.9921 9.70076C23.0551 9.66926 23.1181 9.73226 23.1496 9.79525C23.2126 9.98423 23.37 10.1102 23.559 10.1102C23.748 10.1102 23.9055 9.98423 23.9685 9.79525C23.9685 9.73226 24.0315 9.70076 24.0944 9.70076H24.1259H24.1574C24.2204 9.70076 24.2519 9.73226 24.2834 9.79525C24.3779 10.1417 24.6929 10.3622 25.0393 10.3622C25.3858 10.3622 25.7007 10.1102 25.7952 9.79525C25.8267 9.73226 25.8897 9.70076 25.9527 9.70076C25.9212 9.95273 25.9842 10.0157 25.9527 10.1102Z" fill="white"/>
<path d="M24.5983 9.19659C24.5353 9.22809 24.4723 9.16509 24.4408 9.1021C24.3464 8.75564 24.0314 8.53517 23.6849 8.53517C23.37 8.53517 23.0865 8.72415 22.9605 9.00761C23.2755 9.1336 23.5275 9.38557 23.6219 9.70053C23.6534 9.76352 23.5905 9.82651 23.5275 9.85801C23.4645 9.8895 23.4015 9.82651 23.37 9.76352C23.2755 9.41706 22.9605 9.19659 22.6141 9.19659C22.2676 9.19659 21.9527 9.44856 21.8582 9.76352C21.8267 9.82651 21.7637 9.85801 21.7007 9.85801C21.6377 9.82651 21.6062 9.76352 21.6062 9.70053C21.7322 9.25958 22.1416 8.94462 22.6141 8.94462C22.6456 8.94462 22.6771 8.94462 22.7401 8.94462C22.8975 8.53517 23.2755 8.2832 23.7164 8.2832C24.1889 8.2832 24.5983 8.59816 24.7243 9.03911C24.7243 9.1336 24.6613 9.19659 24.5983 9.19659Z" fill="white"/>
</svg>
