<svg width="40" height="40" viewBox="0 0 40 40" fill="none" xmlns="http://www.w3.org/2000/svg">
<path d="M20 40C31.0457 40 40 31.0457 40 20C40 8.9543 31.0457 0 20 0C8.9543 0 0 8.9543 0 20C0 31.0457 8.9543 40 20 40Z" fill="#FFD05B"/>
<path d="M28.0555 9.02197H10.1386C9.83765 9.02197 9.5921 9.26752 9.5921 9.56059V31.3269C9.5921 31.6279 9.83765 31.8735 10.1386 31.8735H28.0555C28.3565 31.8735 28.602 31.6279 28.602 31.3269V9.56059C28.602 9.26752 28.3565 9.02197 28.0555 9.02197Z" fill="#FF7058"/>
<path d="M27.2 10.4238H11.002V30.4634H27.2V10.4238Z" fill="white"/>
<path d="M23.6039 12.1032H14.4C14.2019 12.1032 14.0515 11.9447 14.0515 11.7546V7.54871C14.0515 7.35069 14.2099 7.2002 14.4 7.2002H23.6039C23.8019 7.2002 23.9524 7.35861 23.9524 7.54871V11.7546C23.9524 11.9447 23.794 12.1032 23.6039 12.1032ZM14.7485 11.3982H23.2475V7.89722H14.7485V11.3982Z" fill="#334A5E"/>
<path d="M22.5109 6.87549H15.4852V8.11113H22.5109V6.87549Z" fill="#FF7058"/>
<path d="M25.9326 13.8218H12.2614V14.7327H25.9326V13.8218Z" fill="#CED5E0"/>
<path d="M25.9326 16.9106H12.2614V17.8215H25.9326V16.9106Z" fill="#CED5E0"/>
<path d="M25.9326 19.9922H12.2614V20.9031H25.9326V19.9922Z" fill="#CED5E0"/>
<path d="M25.9326 23.0811H12.2614V23.9919H25.9326V23.0811Z" fill="#CED5E0"/>
<path d="M25.9326 26.1626H12.2614V27.0735H25.9326V26.1626Z" fill="#CED5E0"/>
<path d="M25.5481 24.0687L26.8195 22.7974L24.6968 20.6747L23.4254 21.946L25.5481 24.0687Z" fill="#2B3B4E"/>
<path d="M17.996 15.2475C16.103 17.1406 16.103 20.2138 17.996 22.1148C19.8891 24.0079 22.9624 24.0079 24.8634 22.1148C26.7643 20.2218 26.7564 17.1485 24.8634 15.2475C22.9624 13.3465 19.8891 13.3465 17.996 15.2475ZM23.8653 21.1168C22.5188 22.4634 20.3327 22.4634 18.9861 21.1168C17.6396 19.7703 17.6396 17.5841 18.9861 16.2376C20.3327 14.8911 22.5188 14.8911 23.8653 16.2376C25.2119 17.5841 25.2119 19.7703 23.8653 21.1168Z" fill="#324A5E"/>
<path d="M26.8436 22.2731L25.0297 24.087C24.8713 24.2454 24.8713 24.5068 25.0297 24.6731L29.7663 29.4097C29.9247 29.5682 30.1861 29.5682 30.3525 29.4097L32.1663 27.5959C32.3248 27.4375 32.3248 27.1761 32.1663 27.0097L27.4297 22.2731C27.2634 22.1147 27.002 22.1147 26.8436 22.2731Z" fill="#324A5E"/>
</svg>
