<svg width="40" height="40" viewBox="0 0 40 40" fill="none" xmlns="http://www.w3.org/2000/svg">
<g clip-path="url(#clip0)">
<path d="M40 20C40 25.5748 37.7323 30.5827 34.0787 34.2047C31.0551 37.1968 27.0866 39.2441 22.6457 39.811C22.6142 39.811 22.5827 39.811 22.5512 39.811C22.1417 39.874 21.7008 39.9055 21.2598 39.937C21.2283 39.937 21.2283 39.937 21.1969 39.937C21.0394 39.937 20.8504 39.9685 20.6929 39.9685C20.4724 39.9685 20.252 39.9685 20 39.9685C19.748 39.9685 19.5591 39.9685 19.3071 39.9685C19.2126 39.9685 19.1181 39.9685 18.9921 39.9685C18.9291 39.9685 18.8661 39.9685 18.7717 39.9685C18.3307 39.937 17.8583 39.9055 17.4173 39.8425C17.3858 39.8425 17.3543 39.8425 17.3228 39.8425C12.8819 39.2441 8.91339 37.2283 5.88976 34.2362C2.26772 30.5827 0 25.5748 0 20C0 8.94488 8.94488 0 20 0C31.0551 0 40 8.94488 40 20Z" fill="#84DBFF"/>
<path d="M27.496 15.9685C27.496 20.2205 24.1259 33.7008 20 33.7008C15.874 33.7008 12.5039 20.252 12.5039 15.9685C12.5039 11.7165 15.874 8.25195 20 8.25195C24.1259 8.25195 27.496 11.685 27.496 15.9685Z" fill="#F1543F"/>
<path d="M28.2205 34.4254L26.1417 37.134L22.6457 39.8427C22.6142 39.8427 22.5827 39.8427 22.5512 39.8427C22.1102 39.9057 21.6693 39.9372 21.1969 39.9687C21.0394 39.9687 20.8504 40.0002 20.6929 40.0002C20.4725 40.0002 20.252 40.0002 20 40.0002C19.748 40.0002 19.5591 40.0002 19.3071 40.0002C19.1496 40.0002 18.9606 40.0002 18.8032 39.9687C18.3622 39.9372 17.8898 39.9057 17.4488 39.8427C17.4173 39.8427 17.3858 39.8427 17.3543 39.8427L13.8583 37.134L11.7795 34.4254L16.378 26.1734C16.3465 26.2049 16.3465 26.2364 16.315 26.2679C16.441 26.0159 16.5354 25.764 16.5354 25.4805L16.6299 24.4096L16.8504 21.1025H23.1496L23.4646 25.4805C23.4646 25.7325 23.5591 25.9529 23.6536 26.1734C23.6536 26.1734 23.6536 26.2049 23.6851 26.2049C23.6851 26.2049 23.6851 26.1734 23.6536 26.1734L28.2205 34.4254Z" fill="#FFD05B"/>
<path d="M28.2205 34.4254L26.1417 37.134L22.6457 39.8427C22.6142 39.8427 22.5827 39.8427 22.5512 39.8427C22.1102 39.9057 21.6693 39.9372 21.1969 39.9687C21.0394 39.9687 20.8504 40.0002 20.6929 40.0002C20.4725 40.0002 20.252 40.0002 20 40.0002C19.748 40.0002 19.5591 40.0002 19.3071 40.0002C19.1496 40.0002 18.9606 40.0002 18.8032 39.9687C18.3622 39.9372 17.8898 39.9057 17.4488 39.8427C17.4173 39.8427 17.3858 39.8427 17.3543 39.8427L13.8583 37.134L11.7795 34.4254L16.378 26.1734C16.3465 26.2049 16.3465 26.2364 16.315 26.2679C16.378 26.1419 16.441 26.0159 16.4725 25.8584C16.504 25.7325 16.5354 25.6065 16.5354 25.4805L16.6299 24.4096L16.8504 21.1025H23.1496L23.4646 25.4805C23.4646 25.6065 23.4961 25.764 23.5276 25.8899C23.5591 25.9844 23.5906 26.0789 23.6221 26.1734C23.6221 26.2049 23.6536 26.2049 23.6536 26.2364C23.6536 26.2364 23.6536 26.2049 23.6221 26.2049C23.6221 26.2049 23.6221 26.2049 23.6221 26.2364L28.2205 34.4254Z" fill="#FFD05B"/>
<path d="M23.3071 32.7251C23.3071 32.7251 22.4252 37.229 21.2599 39.9692C21.2284 39.9692 21.2284 39.9692 21.1969 39.9692C21.0394 39.9692 20.8504 40.0007 20.6929 40.0007C20.4724 40.0007 20.252 40.0007 20 40.0007C19.748 40.0007 19.5591 40.0007 19.3071 40.0007C19.2126 40.0007 19.1181 40.0007 18.9921 40.0007C17.8898 37.796 16.3465 34.2999 16.6929 32.7251C16.6929 32.7251 19.3071 34.5519 23.3071 32.7251Z" fill="#324A5E"/>
<path d="M18.8032 39.9688C13.7953 39.6854 9.29134 37.5436 5.92126 34.2051C7.43308 31.5909 9.41733 31.3704 9.41733 31.3704C13.4488 29.4492 15.8425 26.709 16 26.52L15.1181 28.4098L16.8504 35.8114L18.8032 39.9688Z" fill="#324A5E"/>
<path d="M34.0788 34.2051C30.7402 37.5121 26.2048 39.6539 21.1969 39.9688L23.1182 35.8114L24.8504 28.4098L23.9686 26.52C24.126 26.6775 26.5197 29.4177 30.5512 31.3704C30.5512 31.3704 32.567 31.5909 34.0788 34.2051Z" fill="#324A5E"/>
<path d="M16.9134 33.1967C16.9134 33.1967 18.1102 36.5983 19.3071 39.9684C19.1496 39.9684 18.9606 39.9684 18.8031 39.9369C18.3622 39.9054 17.8897 39.8739 17.4488 39.8109C16.5984 38.7085 15.622 37.7007 14.5197 37.1022L15.0236 34.3936H12.4409C13.5118 29.5747 16.2204 26.2991 16.3779 26.1416C16.2834 26.3621 14.9606 28.9448 16.9134 33.1967Z" fill="white"/>
<path d="M24.9763 34.4251L25.4803 37.1337C24.3464 37.7321 23.4015 38.74 22.5196 39.8424C22.0787 39.9054 21.6378 39.9369 21.1653 39.9684C21.0078 39.9684 20.8189 39.9999 20.6614 39.9999C21.8582 36.6298 23.0551 33.2282 23.0551 33.2282C25.0078 28.9762 23.7165 26.3936 23.622 26.2046C23.7795 26.3621 26.4882 29.6377 27.559 34.4566L24.9763 34.4251Z" fill="white"/>
<path d="M23.5276 25.8899C22.5198 26.8348 21.2914 27.3703 20.0001 27.3703C18.7088 27.3703 17.4804 26.8033 16.4725 25.8584C16.504 25.7325 16.5355 25.6065 16.5355 25.4805L16.63 24.4096L16.8505 21.1025H23.1497L23.4646 25.4805C23.4646 25.6065 23.4961 25.764 23.5276 25.8899Z" fill="#F9B54C"/>
<path d="M26.1732 19.7796C25.5118 23.6536 22.9921 26.4883 20 26.4883C16.8819 26.4883 14.2992 23.3071 13.7638 19.3071C14.7717 18.0158 15.7165 16.252 16.2205 14.8977C16.5354 14.0788 17.6693 13.9528 18.1417 14.7402C19.4016 16.756 22.1102 19.7166 26.1732 19.7796Z" fill="#FFD05B"/>
<path d="M20 3.52783L6.2677 9.19712L20 14.8664L33.7008 9.19712L20 3.52783Z" fill="#324A5E"/>
<path d="M27.496 15.7482C22.5511 14.6773 17.4488 14.6773 12.5039 15.7482C12.5039 13.512 12.5039 11.2758 12.5039 9.00804C17.4488 7.96867 22.5511 7.96867 27.496 9.00804C27.496 11.2758 27.496 13.512 27.496 15.7482Z" fill="#2B3B4E"/>
<path d="M30.5512 9.19727H29.9843V17.5752H30.5512V9.19727Z" fill="#2B3B4E"/>
<path d="M31.8426 19.0551C31.8426 18.9921 31.8426 18.9606 31.8426 18.8976C31.8426 17.3228 31.1182 16.063 30.2363 16.063C29.3544 16.063 28.63 17.3228 28.63 18.8976C28.63 18.9606 28.63 18.9921 28.63 19.0551H31.8426Z" fill="#324A5E"/>
</g>
</svg>
