<svg width="40" height="40" viewBox="0 0 40 40" fill="none" xmlns="http://www.w3.org/2000/svg">
<path d="M20 40C31.0457 40 40 31.0457 40 20C40 8.9543 31.0457 0 20 0C8.9543 0 0 8.9543 0 20C0 31.0457 8.9543 40 20 40Z" fill="#5B5F63"/>
<path d="M32.5375 33.3876C32.5375 32.8513 31.6388 31.9526 31.1025 31.9526C31.6388 31.9526 32.5375 31.0538 32.5375 30.5176C32.5375 31.0538 33.4363 31.9526 33.9725 31.9526C33.4363 31.9526 32.5375 32.8513 32.5375 33.3876Z" fill="white"/>
<path d="M11.0287 35.7748C11.0287 35.2385 10.13 34.3398 9.59375 34.3398C10.13 34.3398 11.0287 33.441 11.0287 32.9048C11.0287 33.441 11.9275 34.3398 12.4637 34.3398C11.9262 34.3398 11.0287 35.2373 11.0287 35.7748Z" fill="white"/>
<path d="M34.7512 14.4484C34.7512 13.7684 33.6137 12.6322 32.9349 12.6322C33.6149 12.6322 34.7512 11.4947 34.7512 10.8159C34.7512 11.4959 35.8887 12.6322 36.5674 12.6322C35.8887 12.6322 34.7512 13.7697 34.7512 14.4484Z" fill="white"/>
<path d="M5.275 17.8796C5.275 16.7721 3.42125 14.9171 2.3125 14.9171C3.42 14.9171 5.275 13.0633 5.275 11.9546C5.275 13.0621 7.12875 14.9171 8.2375 14.9171C7.13 14.9183 5.275 16.7721 5.275 17.8796Z" fill="white"/>
<path d="M24.265 20.0003C24.265 25.4203 20.77 29.9791 15.9275 31.6703C17.2087 32.1191 18.565 32.4103 20 32.4103C26.8537 32.4103 32.41 26.8541 32.41 20.0003C32.41 13.1466 26.8537 7.59033 20 7.59033C18.565 7.59033 17.21 7.88283 15.9275 8.33033C20.77 10.0228 24.265 14.5816 24.265 20.0003Z" fill="#FFD83B"/>
</svg>
