<svg width="40" height="40" viewBox="0 0 40 40" fill="none" xmlns="http://www.w3.org/2000/svg">
<path d="M20 40C31.0457 40 40 31.0457 40 20C40 8.9543 31.0457 0 20 0C8.9543 0 0 8.9543 0 20C0 31.0457 8.9543 40 20 40Z" fill="#FFD05B"/>
<path d="M29.9881 11.1924H8.57031V30.1706H29.9881V11.1924Z" fill="white"/>
<path d="M12.8793 9.20361C12.5704 9.20361 12.3248 9.44916 12.3248 9.75807V12.9422C12.3248 13.2511 12.5704 13.4967 12.8793 13.4967C13.1882 13.4967 13.4337 13.2511 13.4337 12.9422V9.75807C13.4337 9.44916 13.1882 9.20361 12.8793 9.20361Z" fill="#324A5E"/>
<path d="M19.2793 9.20361C18.9704 9.20361 18.7249 9.44916 18.7249 9.75807V12.9422C18.7249 13.2511 18.9704 13.4967 19.2793 13.4967C19.5882 13.4967 19.8338 13.2511 19.8338 12.9422V9.75807C19.8417 9.44916 19.5882 9.20361 19.2793 9.20361Z" fill="#324A5E"/>
<path d="M25.6873 9.20361C25.3784 9.20361 25.1328 9.44916 25.1328 9.75807V12.9422C25.1328 13.2511 25.3784 13.4967 25.6873 13.4967C25.9962 13.4967 26.2417 13.2511 26.2417 12.9422V9.75807C26.2417 9.44916 25.9962 9.20361 25.6873 9.20361Z" fill="#324A5E"/>
<path d="M27.7386 15.4531H10.8278V16.7284H27.7386V15.4531Z" fill="#CED5E0"/>
<path d="M27.7386 20.1899H10.8278V21.4652H27.7386V20.1899Z" fill="#CED5E0"/>
<path d="M27.7386 24.9341H10.8278V26.2093H27.7386V24.9341Z" fill="#CED5E0"/>
<path d="M29.0615 22.2491C28.9981 22.1857 28.9585 22.0986 28.9585 21.9956C28.9664 21.5045 29.2832 21.0214 29.806 20.6966C30.0516 20.5461 30.305 20.4431 30.5506 20.3481C30.6932 20.2926 30.8436 20.2293 30.9862 20.1659C31.7308 19.8016 32.3328 19.1204 32.6021 18.3362C32.7446 17.9243 32.7922 17.4887 32.8555 17.0293C32.8951 16.7362 32.9268 16.4352 32.9902 16.1421C33.0298 15.952 33.212 15.8332 33.4021 15.8728C33.5922 15.9124 33.711 16.0946 33.6714 16.2847C33.6159 16.554 33.5842 16.8313 33.5446 17.1243C33.4813 17.5996 33.4258 18.0907 33.2595 18.5659C32.9268 19.5402 32.2139 20.356 31.2872 20.7996C31.1288 20.8788 30.9704 20.9422 30.804 21.0055C30.5743 21.1006 30.3605 21.1877 30.1625 21.2986C29.9169 21.4491 29.6555 21.7105 29.6555 22.0035C29.6555 22.1936 29.4971 22.3521 29.2991 22.3521C29.212 22.3521 29.1248 22.3125 29.0615 22.2491Z" fill="#2B3B4E"/>
<path d="M20.6416 27.3347C20.5703 27.2634 20.4515 27.2634 20.3802 27.3347L19.3425 28.3723C19.2712 28.4436 19.2712 28.5624 19.3425 28.6337C19.4138 28.705 19.5326 28.705 19.6039 28.6337L20.6416 27.5961C20.7128 27.5248 20.7128 27.406 20.6416 27.3347Z" fill="#324A5E"/>
<path d="M33.0298 12.8948L32.903 12.7681L24.6892 20.9819L26.9942 23.2869L33.0298 17.2512C34.2258 16.0473 34.2258 14.0988 33.0298 12.8948Z" fill="#FF7058"/>
<path d="M24.6891 20.9824L20.0158 27.5567C19.8336 27.8181 20.1505 28.1349 20.4119 27.9527L26.9861 23.2795L24.6891 20.9824Z" fill="#4CDBC4"/>
</svg>
