<svg width="40" height="40" viewBox="0 0 40 40" fill="none" xmlns="http://www.w3.org/2000/svg">
<g clip-path="url(#clip0)">
<path d="M40 20C40 31.0551 31.0551 40 20 40C8.94488 40 0 31.0551 0 20C0 8.94488 8.94488 0 20 0C28.7244 0 36.126 5.5748 38.8661 13.3543C39.4646 15.0236 39.811 16.7874 39.937 18.6142C40 19.0866 40 19.5276 40 20Z" fill="#FF7058"/>
<path d="M5.79529 34.0791C9.41734 37.7326 14.4567 40.0004 20 40.0004C25.5433 40.0004 30.5827 37.7326 34.2047 34.0791" fill="#F1543F"/>
<path d="M27.37 27.9683H9.88967C9.6692 27.9683 9.51172 28.1257 9.51172 28.3462C9.51172 28.5667 9.6692 28.7242 9.88967 28.7242H27.4015C28.6298 28.7242 29.7007 29.669 29.7637 30.8974C29.8267 32.2202 28.7873 33.2911 27.4645 33.2911H9.88967C9.6692 33.2911 9.51172 33.4486 9.51172 33.6691C9.51172 33.8895 9.6692 34.047 9.88967 34.047H27.4645C28.3149 34.047 29.0708 33.7005 29.6062 33.1651C30.1731 32.5982 30.5196 31.8423 30.4881 30.9604C30.4881 29.3226 29.0393 27.9683 27.37 27.9683Z" fill="#84DBFF"/>
<path d="M27.4331 28.7246H10.2362V33.323H27.4331C28.6929 33.323 29.7323 32.2837 29.7323 31.0238C29.7323 29.764 28.7244 28.7246 27.4331 28.7246Z" fill="white"/>
<path d="M24.7874 27.9684H14.9291C14.6771 27.9684 14.4882 27.7794 14.4882 27.5275V21.9527C14.4882 21.7007 14.6771 21.5117 14.9291 21.5117H24.7874C25.0393 21.5117 25.2283 21.7007 25.2283 21.9527V27.559C25.1968 27.7794 25.0078 27.9684 24.7874 27.9684Z" fill="#324A5E"/>
<path d="M25.4803 27.9686H14.2047C13.9528 27.9686 13.7638 27.7796 13.7638 27.5276V27.1182C13.7638 26.8662 13.9528 26.6772 14.2047 26.6772H25.4803C25.7323 26.6772 25.9213 26.8662 25.9213 27.1182V27.5591C25.9213 27.7796 25.7323 27.9686 25.4803 27.9686Z" fill="#2B3B4E"/>
<path d="M20.8504 14.0474H20.2205H19.874H19.2441C19.2441 14.0474 19.4016 19.7796 16.3464 21.5119H19.874H20.2205H23.748C20.6614 19.7796 20.8504 14.0474 20.8504 14.0474Z" fill="#FFD05B"/>
<path d="M19.181 15.4012H20.8818C20.8188 14.5823 20.8188 14.0469 20.8188 14.0469H19.2125C19.244 14.0469 19.244 14.5823 19.181 15.4012Z" fill="#F9B54C"/>
<path d="M23.3385 12.9448C23.181 12.9448 23.0551 12.8188 23.0551 12.6613C23.0551 12.5038 23.181 12.3778 23.3385 12.3778C25.1338 12.3778 26.5196 11.9054 27.4015 10.992C28.2834 10.0786 28.7559 8.7243 28.7559 6.92903C27.6535 7.65344 25.1653 7.30698 24.8818 7.27548C24.7243 7.24399 24.6299 7.118 24.6299 6.96052C24.6614 6.80304 24.7873 6.70855 24.9448 6.70855C25.6692 6.83454 27.7165 6.99202 28.4409 6.42509C28.5984 6.29911 28.6614 6.17312 28.6929 6.01564C28.7244 5.85816 28.8503 5.76367 28.9763 5.76367C29.1338 5.76367 29.2283 5.88966 29.2598 6.04714V6.58257C29.3228 8.69281 28.8188 10.2991 27.748 11.37C26.8031 12.4093 25.2913 12.9448 23.3385 12.9448Z" fill="#F9B54C"/>
<path d="M16.7244 12.9448C14.7716 12.9448 13.2598 12.4093 12.2519 11.37C11.1811 10.2991 10.6771 8.66131 10.7401 6.58257V6.04714C10.7401 5.88966 10.8661 5.76367 11.0236 5.76367C11.1811 5.76367 11.307 5.85816 11.307 6.01564C11.3385 6.17312 11.4015 6.29911 11.559 6.42509C12.3149 6.99202 14.3307 6.80304 15.0551 6.70855C15.2126 6.67706 15.37 6.80304 15.37 6.96052C15.4015 7.118 15.2755 7.27548 15.1181 7.27548C14.8346 7.30698 12.3779 7.68493 11.2441 6.92903C11.2441 8.69281 11.7165 10.0786 12.5984 10.992C13.5118 11.9054 14.8661 12.3778 16.6614 12.3778C16.8189 12.3778 16.9448 12.5038 16.9448 12.6613C17.0078 12.8188 16.8818 12.9448 16.7244 12.9448Z" fill="#F9B54C"/>
<path d="M14.4252 5.66943C14.2047 6.36235 14.1102 7.14975 14.1102 7.93715C14.1102 11.7797 16.7559 14.8663 20.0315 14.8663C23.3071 14.8663 25.9528 11.7482 25.9528 7.93715C25.9528 7.14975 25.8268 6.39384 25.6378 5.66943H14.4252Z" fill="#FFD05B"/>
</g>
</svg>
