<svg width="40" height="40" viewBox="0 0 40 40" fill="none" xmlns="http://www.w3.org/2000/svg">
<path d="M20 40C31.0457 40 40 31.0457 40 20C40 8.9543 31.0457 0 20 0C8.9543 0 0 8.9543 0 20C0 31.0457 8.9543 40 20 40Z" fill="#FD8469"/>
<path d="M17.1565 27.7148V29.4495C17.1565 29.695 17.3545 29.8931 17.6001 29.8931H22.3921C22.6377 29.8931 22.8357 29.695 22.8357 29.4495V27.7148H17.1565Z" fill="#324A5E"/>
<path d="M24.9584 23.9604H15.0258C14.7248 23.9842 10.1307 24.4991 10.8436 32.4674C10.8436 32.4674 12.1743 28.8713 15.0416 28.8713H24.9663C27.8337 28.8713 29.1644 32.4674 29.1644 32.4674C29.901 24.2377 24.9584 23.9604 24.9584 23.9604Z" fill="#4CDBC4"/>
<path d="M19.8021 4.72857C19.6436 4.7365 15.4139 7.90481 15.4139 13.2593C15.4139 17.4098 16.61 26.9781 17.7585 28.8791H21.9169C23.0733 26.9781 24.2615 17.4098 24.2615 13.2593C24.2615 7.90481 19.9842 4.71273 19.8021 4.72857Z" fill="white"/>
<path d="M19.8337 14.9231C20.8223 14.9231 21.6238 13.9195 21.6238 12.6815C21.6238 11.4435 20.8223 10.4399 19.8337 10.4399C18.845 10.4399 18.0436 11.4435 18.0436 12.6815C18.0436 13.9195 18.845 14.9231 19.8337 14.9231Z" fill="#324A5E"/>
<path d="M23.1921 34.6059L21.3069 32.3168L20 34.6455L18.7643 32.3168L16.5386 34.6059L16.8396 30.9307H22.9465L23.1921 34.6059Z" fill="white"/>
</svg>
