<svg width="46" height="46" viewBox="0 0 46 46" fill="none" xmlns="http://www.w3.org/2000/svg">
<path d="M31.3541 24.5405H24.5664V15.1421C24.5664 14.2769 23.8652 13.5757 23 13.5757C22.1348 13.5757 21.4336 14.2769 21.4336 15.1421V26.1069C21.4336 26.9721 22.1348 27.6733 23 27.6733H31.3541C32.2193 27.6733 32.9206 26.9721 32.9206 26.1069C32.9206 25.2417 32.2193 24.5405 31.3541 24.5405Z" fill="#181818"/>
<path d="M26.1328 0H19.8671C19.002 0 18.3007 0.70123 18.3007 1.56643C18.3007 2.43162 19.002 3.13285 19.8671 3.13285H26.1328C26.998 3.13285 27.6992 2.43162 27.6992 1.56643C27.6992 0.70123 26.998 0 26.1328 0Z" fill="#181818"/>
<path d="M42.8589 9.86416L38.8385 5.79154C38.2303 5.17593 37.2381 5.16965 36.6236 5.77744C36.008 6.38523 36.0017 7.37675 36.6095 7.99236L40.6299 12.065C40.9363 12.3757 41.3406 12.5313 41.7447 12.5313C42.1421 12.5313 42.5399 12.3809 42.8448 12.0791C43.4603 11.4713 43.4666 10.4798 42.8589 9.86416Z" fill="#181818"/>
<path d="M23 5.84814C12.4335 5.84814 3.83765 14.4446 3.83765 25.0105C3.83765 35.5764 12.4341 44.1723 23 44.1723C33.5659 44.1723 42.1623 35.5764 42.1623 25.0105C42.1623 14.4446 33.5659 5.84814 23 5.84814ZM23 41.039C14.1613 41.039 6.9705 33.8487 6.9705 25.0099C6.9705 16.1712 14.1613 8.98046 23 8.98046C31.8386 8.98046 39.029 16.1713 39.0294 25.0099C39.0294 33.8487 31.8386 41.039 23 41.039Z" fill="#181818"/>
<path d="M9.37642 5.77813C8.76081 5.17033 7.76984 5.17608 7.1615 5.79223L3.14109 9.86485C2.53329 10.4805 2.53958 11.472 3.15519 12.0798C3.46012 12.381 3.8575 12.5314 4.25533 12.5314C4.65945 12.5314 5.06356 12.3758 5.37011 12.0657L9.39053 7.99305C9.99832 7.37744 9.99203 6.38592 9.37642 5.77813Z" fill="#181818"/>
<path d="M14.8656 38.8881C14.2542 38.2762 13.2622 38.2762 12.6507 38.8881L8.21261 43.3262C7.60068 43.9376 7.60068 44.9297 8.21261 45.5412C8.51808 45.8472 8.91905 46.0001 9.32002 46.0001C9.72099 46.0001 10.1221 45.8471 10.4274 45.5412L14.8655 41.1031C15.4776 40.4916 15.4776 39.4995 14.8656 38.8881Z" fill="#181818"/>
<path d="M37.7868 43.3262L33.3487 38.8881C32.7368 38.2762 31.7457 38.2762 31.1338 38.8881C30.5219 39.4995 30.5219 40.4916 31.1338 41.1031L35.5719 45.5412C35.8779 45.8472 36.2784 46.0001 36.6793 46.0001C37.0803 46.0001 37.4814 45.8471 37.7867 45.5412C38.3988 44.9297 38.3988 43.9376 37.7868 43.3262Z" fill="#181818"/>
</svg>
