<svg width="213" height="51" viewBox="0 0 213 51" fill="none" xmlns="http://www.w3.org/2000/svg">
<path d="M37.75 50H50V1H1V50H13.25" stroke="#FB7C6D" stroke-width="2"/>
<path d="M10 25H40" stroke="#FB7C6D" stroke-width="2"/>
<path d="M73.162 36C72.9553 36 72.7797 35.9277 72.635 35.783C72.4903 35.6383 72.418 35.4627 72.418 35.256V15.044C72.418 14.8167 72.4903 14.641 72.635 14.517C72.7797 14.3723 72.9553 14.3 73.162 14.3H76.076C76.3033 14.3 76.479 14.3723 76.603 14.517C76.7477 14.641 76.82 14.8167 76.82 15.044V35.256C76.82 35.4627 76.7477 35.6383 76.603 35.783C76.479 35.9277 76.3033 36 76.076 36H73.162ZM82.0537 36C81.847 36 81.6713 35.9277 81.5267 35.783C81.382 35.6383 81.3097 35.4627 81.3097 35.256V20.624C81.3097 20.4173 81.382 20.2417 81.5267 20.097C81.6713 19.9523 81.847 19.88 82.0537 19.88H84.5957C84.8023 19.88 84.978 19.9523 85.1227 20.097C85.2673 20.2417 85.3397 20.4173 85.3397 20.624V21.895C86.559 20.345 88.2847 19.57 90.5167 19.57C92.418 19.57 93.9267 20.2003 95.0427 21.461C96.1587 22.701 96.7167 24.3957 96.7167 26.545V35.256C96.7167 35.4627 96.6443 35.6383 96.4997 35.783C96.3757 35.9277 96.2 36 95.9727 36H93.2447C93.038 36 92.8623 35.9277 92.7177 35.783C92.573 35.6383 92.5007 35.4627 92.5007 35.256V26.731C92.5007 25.5117 92.201 24.5713 91.6017 23.91C91.023 23.228 90.1757 22.887 89.0597 22.887C87.9643 22.887 87.0963 23.228 86.4557 23.91C85.8357 24.592 85.5257 25.5323 85.5257 26.731V35.256C85.5257 35.4627 85.4533 35.6383 85.3087 35.783C85.1847 35.9277 85.009 36 84.7817 36H82.0537ZM107.758 36C105.877 36 104.461 35.5143 103.511 34.543C102.581 33.551 102.116 32.1043 102.116 30.203V23.166H99.6668C99.4601 23.166 99.2844 23.0937 99.1398 22.949C98.9951 22.7837 98.9228 22.5977 98.9228 22.391V20.624C98.9228 20.4173 98.9951 20.2417 99.1398 20.097C99.2844 19.9523 99.4601 19.88 99.6668 19.88H102.116V14.734C102.116 14.5067 102.188 14.331 102.333 14.207C102.477 14.0623 102.653 13.99 102.86 13.99H105.371C105.598 13.99 105.774 14.0623 105.898 14.207C106.042 14.331 106.115 14.5067 106.115 14.734V19.88H109.99C110.217 19.88 110.393 19.9523 110.517 20.097C110.661 20.221 110.734 20.3967 110.734 20.624V22.391C110.734 22.6183 110.661 22.8043 110.517 22.949C110.372 23.0937 110.196 23.166 109.99 23.166H106.115V29.893C106.115 30.7817 106.27 31.4533 106.58 31.908C106.89 32.3627 107.406 32.59 108.13 32.59H110.269C110.475 32.59 110.651 32.6623 110.796 32.807C110.94 32.9517 111.013 33.1273 111.013 33.334V35.256C111.013 35.4627 110.94 35.6383 110.796 35.783C110.672 35.9277 110.496 36 110.269 36H107.758ZM120.707 36.31C118.413 36.31 116.584 35.6487 115.22 34.326C113.876 32.9827 113.163 31.102 113.081 28.684L113.05 27.909L113.081 27.134C113.184 24.778 113.907 22.9283 115.251 21.585C116.615 20.2417 118.433 19.57 120.707 19.57C123.145 19.57 125.026 20.314 126.349 21.802C127.692 23.29 128.364 25.274 128.364 27.754V28.405C128.364 28.6117 128.291 28.7873 128.147 28.932C128.002 29.0767 127.816 29.149 127.589 29.149H117.297V29.397C117.338 30.5337 117.648 31.4947 118.227 32.28C118.826 33.0447 119.642 33.427 120.676 33.427C121.895 33.427 122.877 32.9517 123.621 32.001C123.807 31.7737 123.951 31.629 124.055 31.567C124.179 31.505 124.354 31.474 124.582 31.474H127.248C127.434 31.474 127.589 31.536 127.713 31.66C127.857 31.7633 127.93 31.8977 127.93 32.063C127.93 32.559 127.63 33.148 127.031 33.83C126.452 34.4913 125.615 35.07 124.52 35.566C123.424 36.062 122.153 36.31 120.707 36.31ZM124.148 26.545V26.452C124.148 25.2327 123.838 24.251 123.218 23.507C122.618 22.763 121.781 22.391 120.707 22.391C119.632 22.391 118.795 22.763 118.196 23.507C117.596 24.251 117.297 25.2327 117.297 26.452V26.545H124.148ZM132.398 36C132.192 36 132.016 35.9277 131.871 35.783C131.727 35.6383 131.654 35.4627 131.654 35.256V20.655C131.654 20.4483 131.727 20.2727 131.871 20.128C132.016 19.9627 132.192 19.88 132.398 19.88H134.909C135.137 19.88 135.323 19.9523 135.467 20.097C135.612 20.2417 135.684 20.4277 135.684 20.655V21.926C136.18 21.2647 136.8 20.7583 137.544 20.407C138.309 20.0557 139.177 19.88 140.148 19.88H141.419C141.647 19.88 141.822 19.9523 141.946 20.097C142.091 20.221 142.163 20.3967 142.163 20.624V22.856C142.163 23.0627 142.091 23.2383 141.946 23.383C141.822 23.5277 141.647 23.6 141.419 23.6H139.001C138.03 23.6 137.265 23.879 136.707 24.437C136.149 24.995 135.87 25.7597 135.87 26.731V35.256C135.87 35.4627 135.798 35.6383 135.653 35.783C135.509 35.9277 135.323 36 135.095 36H132.398ZM151.344 36.31C149.071 36.31 147.252 35.6797 145.888 34.419C144.545 33.1583 143.832 31.412 143.749 29.18L143.718 27.94L143.749 26.7C143.832 24.468 144.545 22.7217 145.888 21.461C147.252 20.2003 149.071 19.57 151.344 19.57C152.956 19.57 154.32 19.8593 155.436 20.438C156.573 21.0167 157.41 21.7297 157.947 22.577C158.505 23.4037 158.805 24.189 158.846 24.933C158.867 25.1397 158.795 25.3153 158.629 25.46C158.485 25.6047 158.309 25.677 158.102 25.677H155.374C155.168 25.677 155.002 25.6357 154.878 25.553C154.775 25.4497 154.672 25.2843 154.568 25.057C154.258 24.251 153.845 23.6723 153.328 23.321C152.832 22.9697 152.192 22.794 151.406 22.794C150.352 22.794 149.526 23.135 148.926 23.817C148.327 24.4783 148.007 25.491 147.965 26.855L147.934 28.002L147.965 29.025C148.048 31.7323 149.195 33.086 151.406 33.086C152.212 33.086 152.863 32.9103 153.359 32.559C153.855 32.2077 154.258 31.629 154.568 30.823C154.672 30.5957 154.775 30.4407 154.878 30.358C155.002 30.2547 155.168 30.203 155.374 30.203H158.102C158.309 30.203 158.485 30.2753 158.629 30.42C158.795 30.5647 158.867 30.7403 158.846 30.947C158.805 31.6703 158.516 32.4453 157.978 33.272C157.441 34.0987 156.614 34.8117 155.498 35.411C154.382 36.0103 152.998 36.31 151.344 36.31ZM166.76 36.31C165.706 36.31 164.735 36.1033 163.846 35.69C162.978 35.256 162.286 34.6773 161.769 33.954C161.273 33.2307 161.025 32.435 161.025 31.567C161.025 30.1617 161.594 29.025 162.73 28.157C163.867 27.289 165.427 26.7 167.411 26.39L171.658 25.77V25.119C171.658 24.2097 171.431 23.5277 170.976 23.073C170.522 22.6183 169.788 22.391 168.775 22.391C168.093 22.391 167.535 22.5253 167.101 22.794C166.688 23.042 166.357 23.29 166.109 23.538C165.861 23.8067 165.696 23.9823 165.613 24.065C165.531 24.313 165.376 24.437 165.148 24.437H162.761C162.575 24.437 162.41 24.375 162.265 24.251C162.141 24.127 162.079 23.9617 162.079 23.755C162.1 23.2383 162.348 22.6493 162.823 21.988C163.319 21.3267 164.074 20.7583 165.086 20.283C166.099 19.8077 167.339 19.57 168.806 19.57C171.245 19.57 173.022 20.1177 174.138 21.213C175.254 22.3083 175.812 23.7447 175.812 25.522V35.256C175.812 35.4627 175.74 35.6383 175.595 35.783C175.471 35.9277 175.296 36 175.068 36H172.557C172.351 36 172.175 35.9277 172.03 35.783C171.886 35.6383 171.813 35.4627 171.813 35.256V34.047C171.359 34.7083 170.708 35.256 169.86 35.69C169.034 36.1033 168 36.31 166.76 36.31ZM167.814 33.365C168.951 33.365 169.881 32.993 170.604 32.249C171.328 31.505 171.689 30.42 171.689 28.994V28.343L168.589 28.839C167.391 29.025 166.481 29.3247 165.861 29.738C165.262 30.1513 164.962 30.6577 164.962 31.257C164.962 31.9183 165.241 32.435 165.799 32.807C166.357 33.179 167.029 33.365 167.814 33.365ZM185.896 36.31C184.346 36.31 183.044 36.0827 181.99 35.628C180.936 35.1527 180.151 34.605 179.634 33.985C179.138 33.3443 178.89 32.7967 178.89 32.342C178.89 32.1353 178.962 31.97 179.107 31.846C179.252 31.722 179.417 31.66 179.603 31.66H182.052C182.238 31.66 182.393 31.7323 182.517 31.877C182.6 31.939 182.817 32.125 183.168 32.435C183.519 32.7657 183.933 33.024 184.408 33.21C184.883 33.396 185.41 33.489 185.989 33.489C186.816 33.489 187.498 33.3237 188.035 32.993C188.572 32.6623 188.841 32.2077 188.841 31.629C188.841 31.195 188.717 30.8437 188.469 30.575C188.242 30.3063 187.818 30.0687 187.198 29.862C186.578 29.6347 185.658 29.397 184.439 29.149C182.682 28.777 181.38 28.2087 180.533 27.444C179.706 26.6793 179.293 25.6667 179.293 24.406C179.293 23.5793 179.541 22.8043 180.037 22.081C180.533 21.337 181.267 20.7377 182.238 20.283C183.23 19.8077 184.408 19.57 185.772 19.57C187.157 19.57 188.355 19.7973 189.368 20.252C190.381 20.686 191.145 21.213 191.662 21.833C192.199 22.4323 192.468 22.9697 192.468 23.445C192.468 23.631 192.396 23.7963 192.251 23.941C192.127 24.065 191.972 24.127 191.786 24.127H189.492C189.327 24.127 189.151 24.0547 188.965 23.91C188.82 23.8067 188.593 23.6103 188.283 23.321C187.973 23.0317 187.611 22.8043 187.198 22.639C186.785 22.4737 186.299 22.391 185.741 22.391C184.976 22.391 184.377 22.5563 183.943 22.887C183.53 23.2177 183.323 23.6517 183.323 24.189C183.323 24.5817 183.426 24.902 183.633 25.15C183.84 25.398 184.243 25.6357 184.842 25.863C185.441 26.0903 186.34 26.3177 187.539 26.545C189.523 26.9377 190.939 27.5473 191.786 28.374C192.654 29.2007 193.088 30.2133 193.088 31.412C193.088 32.8587 192.458 34.0367 191.197 34.946C189.936 35.8553 188.169 36.31 185.896 36.31ZM203.232 36.31C200.938 36.31 199.109 35.6487 197.745 34.326C196.402 32.9827 195.689 31.102 195.606 28.684L195.575 27.909L195.606 27.134C195.71 24.778 196.433 22.9283 197.776 21.585C199.14 20.2417 200.959 19.57 203.232 19.57C205.671 19.57 207.552 20.314 208.874 21.802C210.218 23.29 210.889 25.274 210.889 27.754V28.405C210.889 28.6117 210.817 28.7873 210.672 28.932C210.528 29.0767 210.342 29.149 210.114 29.149H199.822V29.397C199.864 30.5337 200.174 31.4947 200.752 32.28C201.352 33.0447 202.168 33.427 203.201 33.427C204.421 33.427 205.402 32.9517 206.146 32.001C206.332 31.7737 206.477 31.629 206.58 31.567C206.704 31.505 206.88 31.474 207.107 31.474H209.773C209.959 31.474 210.114 31.536 210.238 31.66C210.383 31.7633 210.455 31.8977 210.455 32.063C210.455 32.559 210.156 33.148 209.556 33.83C208.978 34.4913 208.141 35.07 207.045 35.566C205.95 36.062 204.679 36.31 203.232 36.31ZM206.673 26.545V26.452C206.673 25.2327 206.363 24.251 205.743 23.507C205.144 22.763 204.307 22.391 203.232 22.391C202.158 22.391 201.321 22.763 200.721 23.507C200.122 24.251 199.822 25.2327 199.822 26.452V26.545H206.673Z" fill="#181818"/>
</svg>
